<?xml version="1.0" encoding="UTF-8" standalone="no"?>
<svg width="40px" height="40px" viewBox="0 0 40 40" version="1.1" xmlns="http://www.w3.org/2000/svg" xmlns:xlink="http://www.w3.org/1999/xlink">
    <!-- Generator: Sketch 41.2 (35397) - http://www.bohemiancoding.com/sketch -->
    <title>nav_logo</title>
    <desc>Created with Sketch.</desc>
    <defs>
        <polygon id="path-1" points="4.76023668 8.54764313 8.66944518 6.89713736 8.56830305 19.8070371 4.70829626 21.5064558"></polygon>
        <polygon id="path-3" points="0.173976723 1.2074817 4.13122046 2.88881961 4.12171095 17.9097557 0.173976723 19.5644529"></polygon>
        <polygon id="path-5" points="4.76023668 8.54764313 8.66944518 6.89713736 8.56830305 19.8070371 4.70829626 21.5064558"></polygon>
        <polygon id="path-7" points="0.173976723 1.2074817 4.13122046 2.88881961 4.12171095 17.9097557 0.173976723 19.5644529"></polygon>
    </defs>
    <g id="Page-1" stroke="none" stroke-width="1" fill="none" fill-rule="evenodd">
        <g id="nav_logo">
            <g id="geo" transform="translate(10.000000, 6.000000)">
                <g id="Group-Copy" transform="translate(6.550458, 0.000000)">
                    <mask id="mask-2" fill="white">
                        <use xlink:href="#path-1"></use>
                    </mask>
                    <use id="Rectangle-1" fill="#526A78" transform="translate(6.688871, 14.201797) rotate(-135.000000) translate(-6.688871, -14.201797) " xlink:href="#path-1"></use>
                    <polygon id="Rectangle-1" fill-opacity="0.300000012" fill="#000000" style="mix-blend-mode: darken;" mask="url(#mask-2)" transform="translate(8.027667, 10.061578) scale(-1, -1) rotate(-39.000000) translate(-8.027667, -10.061578) " points="6.04262245 2.6776293 10.0127125 4.32202056 9.98169637 17.445527 6.04262245 15.7695131"></polygon>
                    <mask id="mask-4" fill="white">
                        <use xlink:href="#path-3"></use>
                    </mask>
                    <use id="Rectangle-1" fill="#7F56C3" transform="translate(2.152599, 10.385967) scale(-1, -1) translate(-2.152599, -10.385967) " xlink:href="#path-3"></use>
                    <polygon id="Rectangle-1" fill-opacity="0.300000012" fill="#000000" mask="url(#mask-4)" transform="translate(5.889118, 7.459282) scale(-1, -1) rotate(-36.000000) translate(-5.889118, -7.459282) " points="3.90407267 0.0753327957 7.87416275 1.71972405 7.84314659 14.8432305 3.90407267 13.1672166"></polygon>
                    <polygon id="Rectangle-1" fill="#51C2F7" transform="translate(6.697248, 6.663510) scale(-1, -1) rotate(-45.000000) translate(-6.697248, -6.663510) " points="4.72771074 -0.720438621 8.60071247 -0.704814489 8.66678467 14.047459 4.72771074 12.3714452"></polygon>
                </g>
                <g id="Group-Copy-2" transform="translate(0.000000, 6.498599)">
                    <mask id="mask-6" fill="white">
                        <use xlink:href="#path-5"></use>
                    </mask>
                    <use id="Rectangle-1" fill="#526A78" transform="translate(6.688871, 14.201797) rotate(-135.000000) translate(-6.688871, -14.201797) " xlink:href="#path-5"></use>
                    <polygon id="Rectangle-1" fill-opacity="0.300000012" fill="#000000" style="mix-blend-mode: darken;" mask="url(#mask-6)" transform="translate(8.027667, 10.061578) scale(-1, -1) rotate(-39.000000) translate(-8.027667, -10.061578) " points="6.04262245 2.6776293 10.0127125 4.32202056 9.98169637 17.445527 6.04262245 15.7695131"></polygon>
                    <mask id="mask-8" fill="white">
                        <use xlink:href="#path-7"></use>
                    </mask>
                    <use id="Rectangle-1" fill="#7F56C3" transform="translate(2.152599, 10.385967) scale(-1, -1) translate(-2.152599, -10.385967) " xlink:href="#path-7"></use>
                    <polygon id="Rectangle-1" fill-opacity="0.300000012" fill="#000000" mask="url(#mask-8)" transform="translate(5.889118, 7.459282) scale(-1, -1) rotate(-36.000000) translate(-5.889118, -7.459282) " points="3.90407267 0.0753327957 7.87416275 1.71972405 7.84314659 14.8432305 3.90407267 13.1672166"></polygon>
                    <polygon id="Rectangle-1" fill="#51C2F7" transform="translate(6.697248, 6.663510) scale(-1, -1) rotate(-45.000000) translate(-6.697248, -6.663510) " points="4.72771074 -0.720438621 8.60071247 -0.704814489 8.66678467 14.047459 4.72771074 12.3714452"></polygon>
                </g>
            </g>
        </g>
    </g>
</svg>
